<?xml version="1.0" encoding="utf-8"?>
<!-- Generator: Adobe Illustrator 25.4.1, SVG Export Plug-In . SVG Version: 6.00 Build 0)  -->
<svg version="1.1" id="Calque_1" xmlns="http://www.w3.org/2000/svg" xmlns:xlink="http://www.w3.org/1999/xlink" x="0px" y="0px"
	 viewBox="0 0 75.2 75.2" style="enable-background:new 0 0 75.2 75.2;" xml:space="preserve">
<style type="text/css">
	.st0{fill:#E53C3C;}
</style>
<g id="Calque_2_00000020376566473726613280000001308898838676021169_">
	<g id="Calque_3">
		<path class="st0" d="M37.6,67.2C21.3,67.2,8,53.9,8,37.6S21.3,8,37.6,8s29.6,13.3,29.6,29.6l0,0C67.2,53.9,53.9,67.2,37.6,67.2z
			 M37.6,19.4c-10.1,0-18.2,8.1-18.2,18.2s8.1,18.3,18.2,18.3s18.3-8.2,18.3-18.3C55.9,27.6,47.7,19.4,37.6,19.4z"/>
		<path class="st0" d="M47.1,37.6c0,5.2-4.2,9.4-9.4,9.4s-9.4-4.2-9.4-9.4s4.2-9.4,9.4-9.4l0,0C42.8,28.2,47.1,32.4,47.1,37.6z"/>
	</g>
</g>
</svg>
